<svg xmlns="http://www.w3.org/2000/svg" viewBox="0 0 263.4 72"><style type="text/css">  
	.st0{fill:#FFEE73;}
	.st1{fill:#3759C1;}
</style><polygon class="st0" points="29.4 41.5 14.5 48.3 14.5 59 29.4 50.4 "/><path class="st0" d="M105.5 52.5l-8.8-15.2c-2.6-3.9-6.7-6.7-11.3-7.7l2.3 4h-3.4v-1H86l-4.2-7.2 -4.2 7.2h1.7v1h-3.4l2.3-4c-4.6 0.9-8.7 3.7-11.3 7.7l-8.8 15.3c1.6 2.2 3.4 4.1 5.4 5.8l12.4-21.5h11.9l12.3 21.4C102.2 56.6 104 54.7 105.5 52.5z"/><path class="st0" d="M30.4 49.9l14.8-8.6c0.4-1.7 0.6-3.5 0.6-5.3s-0.2-3.6-0.6-5.3L14.5 13v10.7l15.9 7.7V49.9z"/><path class="st0" d="M134 60.5l12.4-21.4c-3.1 2.7-7 4.3-11.2 4.6l-1.2 2 -1.2-2c-4.2-0.3-8.1-1.9-11.2-4.6L134 60.5z"/><path class="st0" d="M13.5 54.1c-3.3-1-6.2-2.9-8.5-5.3 2.1 3 5 5.6 8.5 7.3V54.1z"/><path class="st0" d="M13.5 59.6v-2.4c-3.7-1.7-6.7-4.3-9-7.4 2.1 4 5.2 7.3 8.8 9.9L13.5 59.6z"/><path class="st0" d="M63 59.3c-2-1.6-3.8-3.5-5.4-5.7L53.3 61H62L63 59.3z"/><path class="st0" d="M5 23.1c2.3-2.4 5.2-4.2 8.5-5.2v-2C10.1 17.6 7.2 20.1 5 23.1z"/><path class="st0" d="M81.8 23.4l2.9 5.1c3.5 0.6 6.8 2.1 9.4 4.4L81.8 11.6 69.5 32.9c2.6-2.3 5.9-3.8 9.4-4.4L81.8 23.4z"/><path class="st0" d="M4.9 7.4v12.2c2-3 4.6-5.7 7.5-7.8L7.6 9v2h-1V8.4L4.9 7.4z"/><path class="st0" d="M196.8 59.4c-1.8-1.2-3.5-2.5-4.9-4l-0.1-0.1c-4.2-4.4-6.6-10.3-6.6-16.6 0-3.7 0.9-7.3 2.5-10.6l0.1-0.2c0.1 0 0.1-0.1 0.1-0.1l0.5-0.9h-0.1 -0.5V10.7l-0.4-0.1 -15.2 8.5c1.8 1.1 3.4 2.4 4.8 3.9l0.1 0.1c4.2 4.4 6.6 10.3 6.6 16.6 0 3.8-0.9 7.5-2.6 10.9l-0.4 0.8h0.4v17.2L196.8 59.4z"/><path class="st0" d="M12.4 60.2c-3-2.1-5.5-4.8-7.5-7.8v12.2l1.7-1V61h1v2L12.4 60.2z"/><path class="st0" d="M148.9 34.6l8.8-15.2c-1.4-2.1-3.2-4-5.2-5.7l-16.7 28.9C141.1 42.1 146 39.1 148.9 34.6z"/><path class="st0" d="M110.4 61l-4.3-7.4c-1.5 2.1-3.4 4-5.4 5.7l1 1.7H110.4z"/><path class="st0" d="M110.3 19.4l8.8 15.2c2.9 4.5 7.8 7.5 13.1 8l-16.7-28.9C113.6 15.3 111.8 17.3 110.3 19.4z"/><path class="st0" d="M13.6 14.8v-2.4l-0.2-0.1c-3.7 2.6-6.7 5.9-8.8 9.9C6.9 19.1 10 16.5 13.6 14.8z"/><path class="st0" d="M152.9 12.9c2 1.6 3.8 3.5 5.3 5.6l2.8-4.8h-2v-1h2.5l1-1.7H154L152.9 12.9z"/><path class="st0" d="M108.9 12.6v1h-2l2.8 4.8c1.5-2.1 3.3-4 5.3-5.6l-1.1-1.8v-0.1h-8.6l1 1.7H108.9z"/><path class="st0" d="M217.1 54.1c-3.3-1-6.2-2.9-8.5-5.3 2.1 3.1 5 5.6 8.5 7.3V54.1z"/><path class="st0" d="M186.3 38.8c0 3.6 0.8 7.1 2.4 10.3 -0.7-2.3-1-4.9-0.9-7.8V30.7C186.8 33.3 186.3 36 186.3 38.8z"/><path class="st0" d="M208.5 7.4v12.2c2-3 4.6-5.7 7.5-7.8L211.2 9v2h-1V8.4L208.5 7.4z"/><path class="st0" d="M171.1 19.6l-3.8 2.1c6.2 2.4 10.9 7.4 12.9 13.6 -0.3-4.9-1.6-8.9-3.9-11.6C174.8 22.1 173 20.7 171.1 19.6z"/><path class="st0" d="M201.6 56.7c-6.2-2.3-10.8-7.2-12.9-13.3 0.4 4.8 1.7 8.7 3.9 11.3 1.5 1.7 3.2 3.1 5.2 4.2L201.6 56.7z"/><path class="st0" d="M181.2 47.8c1-2.6 1.5-5.3 1.5-8.1 0-3.6-0.8-7.1-2.4-10.3 0.6 2.2 1 4.9 0.9 7.8V47.8z"/><path class="st0" d="M208.5 52.4v12.2l1.7-1V61h1v2l4.8-2.8C213 58.1 210.5 55.4 208.5 52.4z"/><path class="st0" d="M208.6 23.1c2.3-2.4 5.2-4.2 8.5-5.2v-2C213.6 17.6 210.7 20.1 208.6 23.1z"/><path class="st0" d="M217.1 59.6v-2.3c-3.7-1.7-6.7-4.3-9-7.4 2.1 3.9 5.2 7.2 8.8 9.8L217.1 59.6z"/><path class="st0" d="M217.1 14.8v-2.4l-0.2-0.1c-3.6 2.6-6.7 5.9-8.8 9.9C210.4 19.1 213.5 16.5 217.1 14.8z"/><path class="st0" d="M249.4 36c0-1.8-0.2-3.6-0.6-5.3L218.1 13v10.8L234 31v10l-15.9 7.3V59l30.7-17.7C249.2 39.6 249.4 37.8 249.4 36z"/><polygon class="st1" points="49.1 60.8 48.2 60.3 45.4 65.1 53 65.1 53 64.1 47.1 64.1 "/><polygon class="st1" points="114.6 60.8 116.5 64.1 110.6 64.1 110.6 65.1 118.2 65.1 115.4 60.3 "/><path class="st1" d="M233.5 6.1c-6.1 0-11.9 1.9-16.6 5l-5.7-3.3V6l2.8 1.6 0.5-0.9 -3.3-1.9V1.7l3.3 1.9 0.5-0.9L210.2 0v7.2l-2.7-1.5v14.4c-4.7-5.7-11.4-9.5-18.7-10.5v-1l-1.5 0.9h-0.5c-0.3 0-0.6 0-0.8 0 -0.5 0-1-0.1-1.5-0.1 -0.4 0-0.8 0-1.3 0 -9.1 0.4-17.6 4.9-23 12.4 -0.4-0.8-0.9-1.6-1.4-2.3l3.3-5.7h1.9l-1.6 2.8 0.9 0.5 2.5-4.3h-3l1.5-2.7h-15.5c-4.4-2.5-9.4-3.9-14.8-3.9 -5.3 0-10.4 1.4-14.9 3.9h-15.4l1.5 2.7h-3l2 3.5C98.8 10 90.7 6.1 81.8 6.1c-10.8 0-20.6 5.8-26 15.1C50.7 12.1 41 6.1 29.9 6.1c-6.1 0-11.9 1.9-16.6 5L7.6 7.8V6l2.8 1.6 0.5-0.9L7.6 4.8V1.7l3.3 1.9 0.5-0.9L6.6 0v7.2L3.9 5.7v15.5C1.4 25.5 0 30.6 0 36s1.4 10.5 3.9 14.8v15.5l2.7-1.5V72l4.8-2.8 -0.5-0.9 -3.3 1.9v-3.1l3.3-1.9 -0.5-0.9L7.6 66v-1.9l5.7-3.3c4.8 3.2 10.5 5 16.6 5 11.1 0 20.8-6.1 25.9-15 0.3 0.6 0.7 1.2 1.1 1.7L51.5 62H67c4.4 2.5 9.5 3.9 14.8 3.9 5.4 0 10.5-1.4 14.8-3.9h15.5l-5.4-9.4c0.4-0.6 0.8-1.3 1.2-2 5.3 9.4 15.2 15.3 26.1 15.3 10 0 18.8-4.9 24.2-12.4 4.5 8.3 12.6 14 21.9 15.3v1.5l2.2-1.2c0.7 0.1 1.5 0.1 2.2 0.1 9 0 17.3-3.9 23-10.8v8l2.7-1.5V72l4.8-2.8 -0.5-0.9 -3.3 1.9v-3.1l3.3-1.9 -0.5-0.9 -2.8 1.6V64l5.7-3.3c4.8 3.2 10.5 5 16.6 5 16.5 0 29.9-13.4 29.9-29.9C263.4 19.5 250 6.1 233.5 6.1zM208.5 7.4l1.7 1V11h1V9l4.8 2.8c-2.9 2.1-5.5 4.8-7.5 7.8V7.4zM216.9 12.3l0.2 0.1v2.4c-3.6 1.7-6.7 4.3-9 7.4C210.2 18.2 213.3 14.9 216.9 12.3zM217.1 15.9v2c-3.3 1-6.2 2.8-8.5 5.2C210.7 20.1 213.6 17.6 217.1 15.9zM207.3 21.5c-0.7 1.2-1.3 2.5-1.8 3.9 -1.4-5.2-4.7-9.6-9.1-12.5C200.7 14.8 204.4 17.8 207.3 21.5zM188.8 10.8c8.1 1.7 14.5 8.2 16.1 16.4 -0.9 2.8-1.3 5.7-1.3 8.8 0 0.5 0 0.9 0 1.4 -2.9-5.4-7.9-9.4-13.9-10.9l0.4-0.6h-1.3V10.8zM189.2 27.4c6.4 1.5 11.7 6 14.3 12.1 -2 4.6-5.5 8.2-10 10.4 -2.5-3-4.2-6.6-4.7-10.6l-0.1-10.9L189.2 27.4zM201.6 56.7l-3.8 2.2c-2-1.1-3.7-2.5-5.2-4.2 -2.2-2.6-3.5-6.5-3.9-11.3C190.8 49.5 195.4 54.4 201.6 56.7zM188.7 49.1c-1.6-3.2-2.4-6.7-2.4-10.3 0-2.8 0.5-5.5 1.5-8.1v10.6C187.7 44.2 188 46.8 188.7 49.1zM184.5 10.3c0.4 0 0.8 0 1.2 0l-19.5 10.9C169.7 14.7 176.6 10.3 184.5 10.3zM172.5 12.9c-5.2 3.4-8.8 9-9.6 15.4 -0.5-1.9-1.2-3.8-2.1-5.6C163.8 18.4 167.8 15 172.5 12.9zM174.9 28.1c-4.4 2.2-7.8 5.7-9.9 10.1 -0.8-2.2-1.3-4.6-1.3-7.1 0-3.2 0.7-6.2 2-8.9l0.3 0.1C169.4 23.4 172.5 25.5 174.9 28.1zM154 11h8.5l-1 1.7H159v1h2l-2.8 4.8c-1.5-2.1-3.3-4-5.3-5.6L154 11zM110.3 19.4c1.5-2.1 3.3-4.1 5.2-5.7l16.7 28.9c-5.3-0.5-10.2-3.5-13.1-8L110.3 19.4zM111.4 23.3c-0.4 1.5-0.7 3-0.8 4.6 -0.5-1.9-1.3-3.8-2.2-5.5 0.4-0.7 0.8-1.4 1.2-2L111.4 23.3zM112.1 24.6l5.4 9.4c0.2 0.4 0.5 0.8 0.7 1.2l9 15.7c-9.3-2.9-15.7-11.5-15.7-21.4C111.6 27.8 111.7 26.2 112.1 24.6zM121.6 39.1c3.1 2.7 7 4.3 11.2 4.6l1.2 2 1.2-2c4.2-0.3 8.1-1.9 11.2-4.6L134 60.5 121.6 39.1zM149.7 35.2c0.3-0.5 0.6-0.9 0.8-1.4l5.3-9.2c0.4 1.6 0.5 3.2 0.5 4.9 0 9.8-6.4 18.5-15.7 21.4L149.7 35.2zM148.9 34.6c-2.9 4.5-7.8 7.5-13.1 8l16.7-28.9c2 1.7 3.8 3.6 5.2 5.7L148.9 34.6zM152.8 11l-0.7 1.2c-0.6-0.4-1.1-0.8-1.7-1.2H152.8zM151.6 13.1l-0.4 0.6c-1.1-1.2-2.2-2.2-3.5-3.1C149.1 11.3 150.4 12.2 151.6 13.1zM150.7 14.6l-0.5 0.8c-0.9-1.6-2.1-3.1-3.5-4.4C148.2 12.1 149.6 13.3 150.7 14.6zM149.7 16.5L134 43.7l-15.7-27.2c3.1-5.8 9-9.4 15.7-9.4C140.6 7.1 146.6 10.7 149.7 16.5zM117.7 15.5l-0.5-0.8c1.2-1.3 2.5-2.5 4-3.5C119.8 12.4 118.6 13.8 117.7 15.5zM120.2 10.5c-1.3 0.9-2.5 2-3.6 3.2l-0.4-0.6C117.5 12.1 118.9 11.3 120.2 10.5zM117.5 11c-0.6 0.4-1.1 0.8-1.7 1.2l-0.7-1.2H117.5zM113.9 10.9L113.9 10.9l1.1 1.9c-2 1.6-3.8 3.5-5.3 5.6l-2.8-4.8h2v-1h-2.6l-1-1.7H113.9zM103.9 13.7h1.9l3.3 5.7c-0.4 0.6-0.8 1.3-1.2 2 -0.9-1.6-1.9-3.1-3.1-4.4l0.7-0.4L103.9 13.7zM4.9 7.4l1.7 1V11h1V9l4.8 2.8c-2.9 2.1-5.5 4.8-7.5 7.8V7.4zM13.4 12.3l0.2 0.1v2.4c-3.6 1.7-6.7 4.3-9 7.4C6.7 18.2 9.7 14.9 13.4 12.3zM13.5 15.9v2c-3.3 1-6.2 2.8-8.5 5.2C7.2 20.1 10.1 17.6 13.5 15.9zM7.6 63v-2h-1v2.6l-1.7 1V52.4c2 3 4.5 5.7 7.5 7.8L7.6 63zM13.5 59.6l-0.2 0.1c-3.6-2.6-6.7-5.9-8.8-9.9 2.3 3.1 5.3 5.7 9 7.4V59.6zM13.5 56.1C10 54.4 7.1 51.8 5 48.8c2.3 2.4 5.2 4.3 8.5 5.3V56.1zM13.5 53C6.1 50.7 1 43.8 1 36s5.1-14.7 12.5-17v5.4l15.9 7.7v8.3l-15.9 7.3V53zM45.2 30.7c0.4 1.7 0.6 3.5 0.6 5.3s-0.2 3.6-0.6 5.3l-14.8 8.6V31.4l-15.9-7.7V13L45.2 30.7zM18.5 14.1c1.6-0.4 3.2-0.5 4.9-0.5 9.8 0 18.5 6.4 21.4 15.7L18.5 14.1zM44.8 42.7C41.9 52 33.2 58.4 23.4 58.4c-1.7 0-3.3-0.2-4.9-0.5L44.8 42.7zM14.5 59V48.3l14.9-6.8v8.9L14.5 59zM29.9 64.9c-5.8 0-11.1-1.7-15.6-4.6l3-1.7c2 0.6 4.1 0.8 6.2 0.8 12.9 0 23.4-10.5 23.4-23.4 0-9.3-5.4-17.3-13.2-21.1 11.3 3.4 21.9 13 21.9 24.3C55.6 53.4 44.1 64.9 29.9 64.9zM50 56.8c4.1-4.7 6.6-10.9 6.6-17.6 0-6.9-3.7-13.6-10.3-18.9 -6.1-4.9-14.1-7.8-21.3-7.8v0.1c-2.6-0.2-5.3 0.1-7.8 0.8l-3-1.7c4.5-2.9 9.9-4.6 15.6-4.6 15.9 0 28.9 13 28.9 28.9C58.8 44.1 55.4 51.5 50 56.8zM56.4 49.8c0.9-1.6 1.6-3.3 2.1-5.1 0.1 1.3 0.3 2.6 0.7 3.9l-1.7 3C57.1 51 56.8 50.4 56.4 49.8zM94.1 32.9c-2.6-2.3-5.9-3.8-9.4-4.4l-2.9-5.1 -2.9 5.1c-3.5 0.6-6.8 2.1-9.4 4.4l12.3-21.3L94.1 32.9zM88.6 21.1c9.3 2.9 15.7 11.5 15.7 21.4 0 1.6-0.2 3.3-0.5 4.9L98.3 38c-0.2-0.4-0.5-0.8-0.7-1.2L88.6 21.1zM66.1 36.8c-0.3 0.5-0.6 0.9-0.8 1.4L60 47.4c-0.4-1.6-0.5-3.2-0.5-4.9 0-9.8 6.4-18.5 15.7-21.4L66.1 36.8zM66.9 37.3c2.6-4 6.7-6.8 11.3-7.7l-2.3 4h3.4v-1h-1.7l4.2-7.2 4.2 7.2h-1.7v1h3.4l-2.3-4c4.6 1 8.7 3.8 11.3 7.7l8.8 15.2c-1.5 2.2-3.3 4.1-5.4 5.8L87.8 36.9H75.9L63.5 58.4c-2-1.7-3.8-3.6-5.4-5.8L66.9 37.3zM62 61h-8.7l4.3-7.4c1.6 2.2 3.4 4.1 5.4 5.7L62 61zM63.1 61l0.6-1.1c0.5 0.4 1 0.8 1.6 1.1H63.1zM64.3 59l0.4-0.6c1.1 1.1 2.2 2.2 3.4 3.1C66.7 60.7 65.5 59.9 64.3 59zM65.2 57.5l0.5-0.8c0.9 1.6 2.1 3 3.4 4.2C67.6 59.9 66.3 58.8 65.2 57.5zM81.8 64.9c-6.5 0-12.5-3.5-15.6-9.2L76.4 38h10.8l10.2 17.7C94.3 61.4 88.3 64.9 81.8 64.9zM98 56.7l0.5 0.8c-1.2 1.3-2.5 2.4-3.9 3.4C95.9 59.7 97.1 58.2 98 56.7zM95.6 61.4c1.2-0.9 2.3-1.9 3.4-3l0.3 0.6C98.2 59.9 96.9 60.7 95.6 61.4zM98.3 61c0.5-0.4 1.1-0.7 1.6-1.1l0.6 1.1H98.3zM110.4 61h-8.7l-1-1.7c2-1.7 3.9-3.6 5.4-5.7L110.4 61zM106.1 51.6l-1.7-3c0.5-2 0.8-4 0.8-6.1 0-10.6-7.1-19.9-17.4-22.6l-6-10.4 -6 10.4c-7.6 2-13.5 7.6-16 14.7 -0.2-4.5-1.4-8.7-3.4-12.5C61.5 12.8 71.2 7 81.8 7c15.9 0 28.9 13 28.9 28.9C110.7 41.7 109 47.1 106.1 51.6zM134 64.9c-10.7 0-20.5-5.9-25.5-15.3 2-3.9 3.2-8.3 3.3-12.9 2.4 7.4 8.4 13.3 16.3 15.4l6 10.4 6-10.4c10.3-2.7 17.4-12 17.4-22.6 0-2.1-0.3-4.1-0.8-6.1l1.7-3c2.9 4.5 4.6 9.9 4.6 15.6C162.9 51.9 149.9 64.9 134 64.9zM180.1 67.8c-9.1-1.4-17-7-21.3-15.2 2.8-4.2 4.6-9.2 5-14.6 2.3 6.8 8.1 12.1 15.5 13.8l-0.4 0.6h1.2V67.8zM180.1 50.3l-0.3 0.5c-6.6-1.4-11.8-5.7-14.4-11.4 2-4.6 5.5-8.4 10.1-10.6 2.5 3 4.1 6.7 4.6 10.6V50.3zM167.3 21.7l3.8-2.1c1.9 1.1 3.7 2.5 5.2 4.1 2.3 2.7 3.6 6.7 3.9 11.6C178.2 29.1 173.5 24.1 167.3 21.7zM180.3 29.4c1.6 3.2 2.4 6.7 2.4 10.3 0 2.8-0.5 5.5-1.5 8.1V37.2C181.3 34.3 180.9 31.6 180.3 29.4zM181.1 68.6V51.4h-0.4l0.4-0.8c1.7-3.4 2.6-7.1 2.6-10.9 0-6.3-2.4-12.2-6.6-16.6L177 23c-1.4-1.5-3-2.8-4.8-3.9l15.2-8.5 0.4 0.1v16.2h0.5 0.1l-0.5 0.9c0 0 0 0.1-0.1 0.1l-0.1 0.2c-1.6 3.3-2.5 6.9-2.5 10.6 0 6.3 2.4 12.2 6.6 16.6l0.1 0.1c1.4 1.5 3.1 2.8 4.9 4L181.1 68.6zM184.5 68.1c-0.2 0-0.4 0-0.6 0L204 56.5l-1.1-0.3c-3.5-1.1-6.4-3.1-8.8-5.5 4.3-2.1 7.7-5.5 9.8-9.8 0.6 3.6 1.8 6.9 3.5 10v5.8h0.1C202 64 193.6 68.1 184.5 68.1zM211.2 63v-2h-1v2.6l-1.7 1V52.4c2 3 4.5 5.7 7.5 7.8L211.2 63zM217.1 59.6l-0.2 0.1c-3.6-2.6-6.7-5.9-8.8-9.8 2.3 3.1 5.3 5.7 9 7.4V59.6zM217.1 56.1c-3.5-1.7-6.4-4.2-8.5-7.3 2.3 2.4 5.2 4.3 8.5 5.3V56.1zM217.1 53c-7.4-2.3-12.5-9.2-12.5-17s5.1-14.7 12.5-17v5.4l15.9 7.2v8.3h0v0.5l-15.9 7.3V53zM248.8 30.7c0.4 1.7 0.6 3.5 0.6 5.3s-0.2 3.6-0.6 5.3L234 49.8V41l0 0V31l-15.9-7.2V13L248.8 30.7zM222.1 14.1c1.6-0.4 3.2-0.5 4.9-0.5 9.8 0 18.5 6.4 21.4 15.7L222.1 14.1zM218.1 59V48.3l14.9-6.8v9L218.1 59zM248.3 42.7c-2.9 9.3-11.5 15.7-21.4 15.7 -1.7 0-3.3-0.2-4.9-0.5L248.3 42.7zM233.5 64.9c-5.8 0-11.1-1.7-15.6-4.6l3-1.7c2 0.5 4.1 0.8 6.2 0.8 12.9 0 23.4-10.5 23.4-23.4 0-9.3-5.4-17.3-13.2-21.1 11.3 3.4 21.9 13 21.9 24.3C259.2 53.4 247.6 64.9 233.5 64.9zM253.5 56.8c4.1-4.7 6.6-10.9 6.6-17.6 0-6.9-3.7-13.6-10.3-18.9 -6.1-4.9-14.1-7.8-21.3-7.8v0.1c-2.6-0.2-5.3 0.1-7.8 0.8l-3-1.7c4.5-2.9 9.9-4.6 15.6-4.6 15.9 0 28.9 13 28.9 28.9C262.4 44.1 259 51.5 253.5 56.8z"/></svg>